# File produced by Open Asset Import Library (http://www.assimp.sf.net)
# (assimp v3.1.35440475)

mtllib Substance_Turret_Base.mtl

# 56 vertex positions
v  0.0284183 19.6504 6.34463
v  0.0284191 14.5637 7.96634
v  -0.0371313 16.1338 12.8506
v  -0.0822125 22.891 16.5577
v  12.666 16.7073 -2.92394
v  6.23593 13.1366 3.53418
v  0.0284194 12.9588 3.0352
v  0.0284188 16.3571 -3.97292
v  12.6544 22.5679 15.5644
v  6.22884 15.9736 12.3768
v  9.12177 15.7229 11.5622
v  17.4022 22.0397 13.8648
v  18.1051 19.6592 6.37747
v  9.55007 14.5672 7.9823
v  9.12297 13.3808 4.30207
v  17.4042 17.2139 -1.31909
v  17.7206 29.3231 3.40177
v  17.8304 24.6147 4.8429
v  17.2839 20.8693 -6.94507
v  17.2935 23.7652 -14.0901
v  13.5901 20.0917 -9.40253
v  0.0284175 24.6004 4.79285
v  -0.0609579 29.5659 20.4344
v  0.0284183 19.5636 -11.0117
v  13.581 29.0746 18.9119
v  17.2824 28.26 16.3106
v  0.0284167 29.3012 3.32774
v  -0.0437582 36.6713 26.5372
v  14.3993 35.9457 24.277
v  17.2923 34.7316 20.4186
v  14.4064 22.61 -17.7361
v  0.028418 21.8337 -20.1264
v  0.0939691 16.1338 12.8506
v  0.139049 22.891 16.5577
v  -6.17909 13.1366 3.53418
v  -12.6092 16.7073 -2.92394
v  -9.06494 15.7229 11.5622
v  -6.172 15.9736 12.3768
v  -12.5976 22.5679 15.5644
v  -17.3454 22.0397 13.8648
v  -9.06614 13.3808 4.30207
v  -9.49323 14.5672 7.9823
v  -18.0483 19.6592 6.37747
v  -17.3473 17.2139 -1.31909
v  -17.2271 20.8693 -6.94507
v  -17.7736 24.6147 4.8429
v  -17.6637 29.323 3.40177
v  -17.2367 23.7652 -14.0901
v  -13.5332 20.0917 -9.40253
v  0.117792 29.5659 20.4344
v  -13.5242 29.0746 18.9119
v  -17.2256 28.26 16.3106
v  -14.3425 35.9457 24.277
v  0.100589 36.6713 26.5372
v  -14.3496 22.61 -17.7361
v  -17.2355 34.7316 20.4186

# 96 UV coordinates
vt 0.0599978 0.872342 0
vt 0 0.872269 0
vt 0.000203543 0.811253 0
vt 0.059967 0.74491 0
vt 0.548789 0.371595 0
vt 0.467583 0.294975 0
vt 0.473105 0.221859 0
vt 0.560426 0.222751 0
vt 0.548669 0.738819 0
vt 0.456695 0.675951 0
vt 0.484221 0.663325 0
vt 0.593918 0.71363 0
vt 0.602266 0.620956 0
vt 0.488981 0.618837 0
vt 0.485702 0.573908 0
vt 0.597427 0.527008 0
vt 0.428329 0.76277 0
vt 0.39753 0.687584 0
vt 0.533391 0.426405 0
vt 0.460116 0.328544 0
vt 0.660323 0.640991 0
vt 0.631323 0.631209 0
vt 0.628884 0.486834 0
vt 0.660323 0.426405 0
vt 0.607422 0.424887 0
vt 0.630376 0.383155 0
vt 0.118293 0.872114 0
vt 0.118275 0.676944 0
vt 0.647257 0.223826 0
vt 0.587935 0.80797 0
vt 0.623521 0.772661 0
vt 0.458933 0.839257 0
vt 0.198785 0.292649 0
vt 0.19323 0.582195 0
vt 0.0315872 0.549975 0
vt 0.000143592 0.501084 0
vt 0 0.288671 0
vt 0.00959653 0.070576 0
vt 0.0430314 0.025901 0
vt 0.20522 0 0
vt 0.487394 0.94164 0
vt 0.624124 0.90055 0
vt 0.652372 0.850534 0
vt 0.694048 0.426405 0
vt 0.727649 0.395216 0
vt 0.173624 0.871801 0
vt 0.173624 0.582195 0
vt 0.751758 0.226863 0
vt 0.791935 0.747757 0
vt 0.791289 0.687695 0
vt 0.824037 0.696829 0
vt 0.824889 0.822229 0
vt 0.824113 0.569921 0
vt 0.856018 0.51164 0
vt 0.855855 0.705998 0
vt 0.469733 0.147884 0
vt 0.553166 0.0721397 0
vt 0.705705 0.742014 0
vt 0.732885 0.748794 0
vt 0.704932 0.824029 0
vt 0.660323 0.808435 0
vt 0.463266 0.113043 0
vt 0.430015 0.104921 0
vt 0.469686 0 0
vt 0.539409 0.0146777 0
vt 0.39753 0.107015 0
vt 0.401625 0.00212652 0
vt 0.791145 0.62688 0
vt 0.944668 0.834485 0
vt 0.944643 0.687371 0
vt 0.999978 0.686749 0
vt 1 0.905035 0
vt 0.613399 0.0160078 0
vt 0.635074 0.0618038 0
vt 0.856421 0.898153 0
vt 0.727948 0.894446 0
vt 0.693206 0.866614 0
vt 0.886367 0.783882 0
vt 0.88634 0.687818 0
vt 0.886374 0.594405 0
vt 0.944671 0.544283 0
vt 0.354492 0.557928 0
vt 0.191608 0.582155 0
vt 0.366095 0.033857 0
vt 0.39753 0.0801296 0
vt 0.39753 0.298461 0
vt 0.38805 0.510637 0
vt 0.88634 1 0
vt 0.750334 0.988108 0
vt 1 0.474413 0
vt 0.88634 0.426405 0
vt 0.886055 0.714797 0
vt 0.700028 0.0173 0
vt 0.732629 0.0545214 0
vt 0.944661 0.511989 0
vt 0.999964 0.426405 0

# 47 vertex normals
vn -0.999937 -0.00185557 -0.0110777
vn 0.060944 -0.898047 -0.435658
vn 0.203692 -0.570376 0.795726
vn 0.526901 -0.823419 0.210612
vn 0.0554593 -0.47893 0.876099
vn 0.525096 -0.793643 0.307255
vn 0.193736 -0.923789 -0.330273
vn 0.99946 -0.0179164 -0.0275393
vn 0.344215 -0.821365 -0.454836
vn -0.999954 0.00360405 -0.00887931
vn 0.0740475 -0.898363 -0.432969
vn 0.362831 -0.405023 0.839232
vn 0.998056 -0.00582155 -0.0620452
vn 0.0683241 -0.483258 0.872808
vn 0.997954 0.0306504 0.0561137
vn -0.00016341 0.953061 -0.302779
vn 0.0760006 -0.635191 0.768607
vn 0.999422 0.000824701 0.0339921
vn 0.489401 -0.830965 -0.264546
vn -0.99998 0.00353043 -0.00527906
vn 0.0821621 -0.962059 -0.260175
vn 0.511773 -0.51825 0.685205
vn 0.999937 -0.00185531 -0.0110777
vn 1 1.62921e-07 0
vn -0.0609437 -0.898047 -0.435657
vn -0.203692 -0.570376 0.795726
vn -0.5269 -0.823419 0.210612
vn -0.0554592 -0.47893 0.876099
vn -0.525096 -0.793643 0.307254
vn 1 1.63063e-07 -1.56831e-10
vn -0.193736 -0.923789 -0.330273
vn -0.99946 -0.0179172 -0.0275391
vn -0.344214 -0.821365 -0.454836
vn 0.999954 0.00360439 -0.00887937
vn -0.0740472 -0.898363 -0.432969
vn -0.362831 -0.405023 0.839232
vn -0.998056 -0.00582228 -0.0620452
vn -0.068324 -0.483258 0.872808
vn -0.997954 0.0306501 0.0561137
vn 0.000163102 0.953061 -0.302779
vn -0.0760004 -0.635191 0.768607
vn -0.999422 0.000824247 0.0339925
vn 1 1.62951e-07 -3.31576e-11
vn -0.489401 -0.830965 -0.264547
vn 0.99998 0.00353084 -0.00527911
vn -0.0821618 -0.962059 -0.260175
vn -0.511773 -0.51825 0.685205

# Mesh 'Turret Anchor.001_Turret Anchor.001' with 102 faces
g Turret Anchor.001_Turret Anchor.001
usemtl DefaultMaterial
f  1/1/1 2/2/1 3/3/1
f  3/3/1 4/4/1 1/1/1
f  5/5/2 6/6/2 7/7/2
f  7/7/2 8/8/2 5/5/2
f  9/9/3 10/10/3 11/11/3
f  11/11/3 12/12/3 9/9/3
f  13/13/4 14/14/4 15/15/4
f  15/15/4 16/16/4 13/13/4
f  4/17/5 3/18/5 10/10/5
f  10/10/5 9/9/5 4/17/5
f  12/12/6 11/11/6 14/14/6
f  14/14/6 13/13/6 12/12/6
f  16/19/7 15/20/7 6/6/7
f  6/6/7 5/5/7 16/19/7
f  17/21/8 18/22/8 19/23/8
f  19/23/8 20/24/8 17/21/8
f  19/25/9 16/19/9 5/5/9
f  5/5/9 21/26/9 19/25/9
f  22/27/10 1/1/10 4/4/10
f  4/4/10 23/28/10 22/27/10
f  21/26/11 5/5/11 8/8/11
f  8/8/11 24/29/11 21/26/11
f  25/30/12 9/9/12 12/12/12
f  12/12/12 26/31/12 25/30/12
f  18/22/13 13/13/13 16/16/13
f  16/16/13 19/23/13 18/22/13
f  23/32/14 4/17/14 9/9/14
f  9/9/14 25/30/14 23/32/14
f  26/31/15 12/12/15 13/13/15
f  13/13/15 18/22/15 26/31/15
f  27/33/16 28/34/16 29/35/16
f  27/33/16 29/35/16 30/36/16
f  27/33/16 30/36/16 17/37/16
f  27/33/16 17/37/16 20/38/16
f  27/33/16 20/38/16 31/39/16
f  31/39/16 32/40/16 27/33/16
f  28/41/17 23/32/17 25/30/17
f  25/30/17 29/42/17 28/41/17
f  30/43/18 26/31/18 18/22/18
f  18/22/18 17/21/18 30/43/18
f  20/44/19 19/25/19 21/26/19
f  21/26/19 31/45/19 20/44/19
f  27/46/20 22/27/20 23/28/20
f  23/28/20 28/47/20 27/46/20
f  31/45/21 21/26/21 24/29/21
f  24/29/21 32/48/21 31/45/21
f  29/42/22 25/30/22 26/31/22
f  26/31/22 30/43/22 29/42/22
f  33/49/23 2/50/23 1/51/23
f  1/51/23 34/52/23 33/49/23
f  1/51/24 8/53/24 24/54/24
f  24/54/24 22/55/24 1/51/24
f  7/7/25 35/56/25 36/57/25
f  36/57/25 8/8/25 7/7/25
f  37/58/26 38/59/26 39/60/26
f  39/60/26 40/61/26 37/58/26
f  41/62/27 42/63/27 43/64/27
f  43/64/27 44/65/27 41/62/27
f  38/59/28 33/49/28 34/52/28
f  34/52/28 39/60/28 38/59/28
f  42/63/29 37/66/29 40/67/29
f  40/67/29 43/64/29 42/63/29
f  2/50/30 7/68/30 8/53/30
f  8/53/30 1/51/30 2/50/30
f  35/56/31 41/62/31 44/65/31
f  44/65/31 36/57/31 35/56/31
f  45/69/32 46/70/32 47/71/32
f  47/71/32 48/72/32 45/69/32
f  36/57/33 44/65/33 45/73/33
f  45/73/33 49/74/33 36/57/33
f  34/52/34 1/51/34 22/55/34
f  22/55/34 50/75/34 34/52/34
f  8/8/35 36/57/35 49/74/35
f  49/74/35 24/29/35 8/8/35
f  40/61/36 39/60/36 51/76/36
f  51/76/36 52/77/36 40/61/36
f  44/78/37 43/79/37 46/70/37
f  46/70/37 45/69/37 44/78/37
f  39/60/38 34/52/38 50/75/38
f  50/75/38 51/76/38 39/60/38
f  43/79/39 40/80/39 52/81/39
f  52/81/39 46/70/39 43/79/39
f  53/82/40 54/83/40 27/33/40
f  53/82/40 27/33/40 32/40/40
f  53/82/40 32/40/40 55/84/40
f  53/82/40 55/84/40 48/85/40
f  53/82/40 48/85/40 47/86/40
f  47/86/40 56/87/40 53/82/40
f  51/76/41 50/75/41 54/88/41
f  54/88/41 53/89/41 51/76/41
f  46/70/42 52/81/42 56/90/42
f  56/90/42 47/71/42 46/70/42
f  22/55/24 24/54/24 32/91/43
f  32/91/43 27/92/43 22/55/24
f  49/74/44 45/73/44 48/93/44
f  48/93/44 55/94/44 49/74/44
f  50/75/45 22/55/45 27/92/45
f  27/92/45 54/88/45 50/75/45
f  24/29/46 49/74/46 55/94/46
f  55/94/46 32/48/46 24/29/46
f  52/81/47 51/95/47 53/96/47
f  53/96/47 56/90/47 52/81/47

